<?xml version="1.0" encoding="UTF-8" standalone="no"?>
<!-- Generator: Adobe Illustrator 19.2.1, SVG Export Plug-In . SVG Version: 6.00 Build 0)  -->

<svg
   xmlns:dc="http://purl.org/dc/elements/1.1/"
   xmlns:cc="http://creativecommons.org/ns#"
   xmlns:rdf="http://www.w3.org/1999/02/22-rdf-syntax-ns#"
   xmlns:svg="http://www.w3.org/2000/svg"
   xmlns="http://www.w3.org/2000/svg"
   xmlns:sodipodi="http://sodipodi.sourceforge.net/DTD/sodipodi-0.dtd"
   xmlns:inkscape="http://www.inkscape.org/namespaces/inkscape"
   version="1.1"
   id="Layer_1"
   x="0px"
   y="0px"
   viewBox="0 0 194 297"
   xml:space="preserve"
   inkscape:version="0.48.4 r9939"
   width="100%"
   height="100%"
   sodipodi:docname="asset-bike.svg"><metadata
     id="metadata47"><rdf:RDF><cc:Work
         rdf:about=""><dc:format>image/svg+xml</dc:format><dc:type
           rdf:resource="http://purl.org/dc/dcmitype/StillImage" /><dc:title></dc:title></cc:Work></rdf:RDF></metadata><defs
     id="defs45" /><sodipodi:namedview
     pagecolor="#ffffff"
     bordercolor="#666666"
     borderopacity="1"
     objecttolerance="10"
     gridtolerance="10"
     guidetolerance="10"
     inkscape:pageopacity="0"
     inkscape:pageshadow="2"
     inkscape:window-width="640"
     inkscape:window-height="480"
     id="namedview43"
     showgrid="false"
     inkscape:zoom="1.4896383"
     inkscape:cx="146.54562"
     inkscape:cy="155.43019"
     inkscape:window-x="0"
     inkscape:window-y="27"
     inkscape:window-maximized="0"
     inkscape:current-layer="Layer_1"
     inkscape:snap-bbox="true" /><style
     type="text/css"
     id="style3">
	.st0{fill:none;stroke:#0099FF;stroke-width:14;stroke-linecap:round;stroke-linejoin:round;}
	.st1{fill:none;stroke:#0099FF;stroke-width:12;stroke-miterlimit:3;}
	.st2{fill:none;stroke:#0099FF;stroke-width:14;stroke-linecap:square;stroke-linejoin:round;}
	.st3{fill:none;stroke:#0099FF;stroke-width:14;stroke-linejoin:round;}
	.st4{font-family:'GeometosRounded';}
	.st5{font-size:95.7947px;}
	.st6{letter-spacing:-7;}
	.st7{font-size:59.8717px;}
</style><g
     id="g5"
     transform="translate(-34.177215,-3)"><g
       id="g7"><path
         id="Layer0_0_1_STROKES"
         class="st0"
         d="m 110.1,120.8 -17.5,-45.5 36,-0.6 m 5.1,107.2 -7.1,-18.6"
         inkscape:connector-curvature="0"
         style="fill:none;stroke:#0099ff;stroke-width:14;stroke-linecap:round;stroke-linejoin:round" /></g><g
       id="g10"><path
         id="Layer0_0_2_STROKES"
         class="st1"
         d="m 204.9,180.6 c 0,19.6 -6.9,36.3 -20.8,50.1 -13.8,13.9 -30.6,20.8 -50.2,20.8 H 129 c -19.6,0 -36.4,-6.9 -50.2,-20.8 C 64.9,216.9 58,200.2 58,180.6 V 132 51.5 h 146.9 v 129.1 z"
         inkscape:connector-curvature="0"
         style="fill:none;stroke:#0099ff;stroke-width:12;stroke-miterlimit:3" /></g><g
       id="g13"><path
         id="Layer0_0_3_STROKES"
         class="st2"
         d="m 128.6,74.8 c 4,-0.1 7.5,1.3 10.4,4.1 2.9,2.9 4.4,6.3 4.4,10.3 0.1,4 -1.3,7.5 -4.1,10.4 -1.8,1.9 -3.9,3.2 -6.3,3.8"
         inkscape:connector-curvature="0"
         style="fill:none;stroke:#0099ff;stroke-width:14;stroke-linecap:square;stroke-linejoin:round" /></g><g
       id="g16"><path
         id="Layer0_0_4_STROKES"
         class="st3"
         d="m 121.8,132.6 c 0.9,-0.3 1.6,-0.6 2.2,-0.7 2.5,-0.4 5.1,-0.6 7.9,-0.6 12.8,0 23.8,4.5 32.8,13.6 9,9.1 13.6,20 13.6,32.8 0,12.8 -4.5,23.8 -13.6,32.9 -9.1,9 -20,13.5 -32.8,13.5 -12.8,0 -23.7,-4.5 -32.8,-13.5 -9.1,-9.1 -13.6,-20 -13.6,-32.9 0,-12.8 4.5,-23.7 13.6,-32.8 1.7,-1.7 3.4,-3.2 5.2,-4.5 1.5,-1.1 3.2,-2.1 5.2,-2.9 m 3.7,-8.7 -3.1,-8 m 16.5,42.4 -8.6,-22.4 M 58,132 105.9,113.6"
         inkscape:connector-curvature="0"
         style="fill:none;stroke:#0099ff;stroke-width:14;stroke-linejoin:round" /></g></g></svg>